<?xml version="1.0" encoding="utf-8"?>
<!-- Generator: Adobe Illustrator 18.0.0, SVG Export Plug-In . SVG Version: 6.00 Build 0)  -->
<!DOCTYPE svg PUBLIC "-//W3C//DTD SVG 1.1//EN" "http://www.w3.org/Graphics/SVG/1.1/DTD/svg11.dtd">
<svg version="1.1" id="Ebene_1" xmlns="http://www.w3.org/2000/svg" xmlns:xlink="http://www.w3.org/1999/xlink" x="0px" y="0px"
	 viewBox="0 0 196.6 69.2" enable-background="new 0 0 196.6 69.2" xml:space="preserve">
<g>
	<path fill="#FFFFFF" d="M37.2,68.7c0-0.3-0.2-0.5-0.5-0.5c-0.3,0-0.5,0.2-0.5,0.5c0,0.3,0.2,0.5,0.5,0.5C37,69.2,37.2,69,37.2,68.7
		L37.2,68.7z"/>
	<path fill="#FFFFFF" d="M32.9,65.7c0-0.3-0.2-0.5-0.5-0.5c-0.3,0-0.5,0.2-0.5,0.5c0,0.3,0.2,0.5,0.5,0.5
		C32.7,66.2,32.9,66,32.9,65.7L32.9,65.7z M37.2,65.7c0-0.3-0.2-0.5-0.5-0.5c-0.3,0-0.5,0.2-0.5,0.5c0,0.3,0.2,0.5,0.5,0.5
		C37,66.2,37.2,66,37.2,65.7L37.2,65.7z"/>
	<path fill="#FFFFFF" d="M32.9,64.2c0-0.3-0.2-0.5-0.5-0.5c-0.3,0-0.5,0.2-0.5,0.5c0,0.3,0.2,0.5,0.5,0.5
		C32.7,64.7,32.9,64.5,32.9,64.2L32.9,64.2z M37.2,64.2c0-0.3-0.2-0.5-0.5-0.5c-0.3,0-0.5,0.2-0.5,0.5c0,0.3,0.2,0.5,0.5,0.5
		C37,64.7,37.2,64.5,37.2,64.2L37.2,64.2z"/>
	<path fill="#FFFFFF" d="M30.8,62.7c0-0.3-0.2-0.5-0.5-0.5c-0.3,0-0.5,0.2-0.5,0.5c0,0.3,0.2,0.5,0.5,0.5
		C30.6,63.2,30.8,63,30.8,62.7L30.8,62.7z M32.9,62.7c0-0.3-0.2-0.5-0.5-0.5c-0.3,0-0.5,0.2-0.5,0.5c0,0.3,0.2,0.5,0.5,0.5
		C32.7,63.2,32.9,63,32.9,62.7L32.9,62.7z M37.2,62.7c0-0.3-0.2-0.5-0.5-0.5c-0.3,0-0.5,0.2-0.5,0.5c0,0.3,0.2,0.5,0.5,0.5
		C37,63.2,37.2,63,37.2,62.7L37.2,62.7z M39.3,62.7c0-0.3-0.2-0.5-0.5-0.5c-0.3,0-0.5,0.2-0.5,0.5c0,0.3,0.2,0.5,0.5,0.5
		C39.1,63.2,39.3,63,39.3,62.7L39.3,62.7z"/>
	<path fill="#FFFFFF" d="M30.8,61.2c0-0.3-0.2-0.5-0.5-0.5c-0.3,0-0.5,0.2-0.5,0.5c0,0.3,0.2,0.5,0.5,0.5
		C30.6,61.7,30.8,61.5,30.8,61.2L30.8,61.2z M32.9,61.2c0-0.3-0.2-0.5-0.5-0.5c-0.3,0-0.5,0.2-0.5,0.5c0,0.3,0.2,0.5,0.5,0.5
		C32.7,61.7,32.9,61.5,32.9,61.2L32.9,61.2z M39.3,61.2c0-0.3-0.2-0.5-0.5-0.5c-0.3,0-0.5,0.2-0.5,0.5c0,0.3,0.2,0.5,0.5,0.5
		C39.1,61.7,39.3,61.5,39.3,61.2L39.3,61.2z"/>
	<path fill="#FFFFFF" d="M30.8,59.7c0-0.3-0.2-0.5-0.5-0.5c-0.3,0-0.5,0.2-0.5,0.5c0,0.3,0.2,0.5,0.5,0.5
		C30.6,60.2,30.8,60,30.8,59.7L30.8,59.7z M32.9,59.7c0-0.3-0.2-0.5-0.5-0.5c-0.3,0-0.5,0.2-0.5,0.5c0,0.3,0.2,0.5,0.5,0.5
		C32.7,60.2,32.9,60,32.9,59.7L32.9,59.7z M37.2,59.7c0-0.3-0.2-0.5-0.5-0.5c-0.3,0-0.5,0.2-0.5,0.5c0,0.3,0.2,0.5,0.5,0.5
		C37,60.2,37.2,60,37.2,59.7L37.2,59.7z M39.3,59.7c0-0.3-0.2-0.5-0.5-0.5c-0.3,0-0.5,0.2-0.5,0.5c0,0.3,0.2,0.5,0.5,0.5
		C39.1,60.2,39.3,60,39.3,59.7L39.3,59.7z"/>
	<path fill="#FFFFFF" d="M30.8,58.2c0-0.3-0.2-0.5-0.5-0.5c-0.3,0-0.5,0.2-0.5,0.5c0,0.3,0.2,0.5,0.5,0.5
		C30.6,58.7,30.8,58.5,30.8,58.2L30.8,58.2z M32.9,58.2c0-0.3-0.2-0.5-0.5-0.5c-0.3,0-0.5,0.2-0.5,0.5c0,0.3,0.2,0.5,0.5,0.5
		C32.7,58.7,32.9,58.5,32.9,58.2L32.9,58.2z M37.2,58.2c0-0.3-0.2-0.5-0.5-0.5c-0.3,0-0.5,0.2-0.5,0.5c0,0.3,0.2,0.5,0.5,0.5
		C37,58.7,37.2,58.5,37.2,58.2L37.2,58.2z M39.3,58.2c0-0.3-0.2-0.5-0.5-0.5c-0.3,0-0.5,0.2-0.5,0.5c0,0.3,0.2,0.5,0.5,0.5
		C39.1,58.7,39.3,58.5,39.3,58.2L39.3,58.2z"/>
	<path fill="#FFFFFF" d="M30.8,56.7c0-0.3-0.2-0.5-0.5-0.5c-0.3,0-0.5,0.2-0.5,0.5c0,0.3,0.2,0.5,0.5,0.5
		C30.6,57.2,30.8,57,30.8,56.7L30.8,56.7z M32.9,56.7c0-0.3-0.2-0.5-0.5-0.5c-0.3,0-0.5,0.2-0.5,0.5c0,0.3,0.2,0.5,0.5,0.5
		C32.7,57.2,32.9,57,32.9,56.7L32.9,56.7z M37.2,56.7c0-0.3-0.2-0.5-0.5-0.5c-0.3,0-0.5,0.2-0.5,0.5c0,0.3,0.2,0.5,0.5,0.5
		C37,57.2,37.2,57,37.2,56.7L37.2,56.7z M39.3,56.7c0-0.3-0.2-0.5-0.5-0.5c-0.3,0-0.5,0.2-0.5,0.5c0,0.3,0.2,0.5,0.5,0.5
		C39.1,57.2,39.3,57,39.3,56.7L39.3,56.7z"/>
	<path fill="#FFFFFF" d="M30.8,55.2c0-0.3-0.2-0.5-0.5-0.5c-0.3,0-0.5,0.2-0.5,0.5c0,0.3,0.2,0.5,0.5,0.5
		C30.6,55.7,30.8,55.5,30.8,55.2L30.8,55.2z M32.9,55.2c0-0.3-0.2-0.5-0.5-0.5c-0.3,0-0.5,0.2-0.5,0.5c0,0.3,0.2,0.5,0.5,0.5
		C32.7,55.7,32.9,55.5,32.9,55.2L32.9,55.2z M37.2,55.2c0-0.3-0.2-0.5-0.5-0.5c-0.3,0-0.5,0.2-0.5,0.5c0,0.3,0.2,0.5,0.5,0.5
		C37,55.7,37.2,55.5,37.2,55.2L37.2,55.2z M39.3,55.2c0-0.3-0.2-0.5-0.5-0.5c-0.3,0-0.5,0.2-0.5,0.5c0,0.3,0.2,0.5,0.5,0.5
		C39.1,55.7,39.3,55.5,39.3,55.2L39.3,55.2z"/>
	<path fill="#FFFFFF" d="M30.8,53.7c0-0.3-0.2-0.5-0.5-0.5c-0.3,0-0.5,0.2-0.5,0.5c0,0.3,0.2,0.5,0.5,0.5
		C30.6,54.2,30.8,54,30.8,53.7L30.8,53.7z M32.9,53.7c0-0.3-0.2-0.5-0.5-0.5c-0.3,0-0.5,0.2-0.5,0.5c0,0.3,0.2,0.5,0.5,0.5
		C32.7,54.2,32.9,54,32.9,53.7L32.9,53.7z M37.2,53.7c0-0.3-0.2-0.5-0.5-0.5c-0.3,0-0.5,0.2-0.5,0.5c0,0.3,0.2,0.5,0.5,0.5
		C37,54.2,37.2,54,37.2,53.7L37.2,53.7z M39.3,53.7c0-0.3-0.2-0.5-0.5-0.5c-0.3,0-0.5,0.2-0.5,0.5c0,0.3,0.2,0.5,0.5,0.5
		C39.1,54.2,39.3,54,39.3,53.7L39.3,53.7z"/>
	<path fill="#FFFFFF" d="M30.8,52.2c0-0.3-0.2-0.5-0.5-0.5c-0.3,0-0.5,0.2-0.5,0.5c0,0.3,0.2,0.5,0.5,0.5
		C30.6,52.7,30.8,52.5,30.8,52.2L30.8,52.2z M32.9,52.2c0-0.3-0.2-0.5-0.5-0.5c-0.3,0-0.5,0.2-0.5,0.5c0,0.3,0.2,0.5,0.5,0.5
		C32.7,52.7,32.9,52.5,32.9,52.2L32.9,52.2z M37.2,52.2c0-0.3-0.2-0.5-0.5-0.5c-0.3,0-0.5,0.2-0.5,0.5c0,0.3,0.2,0.5,0.5,0.5
		C37,52.7,37.2,52.5,37.2,52.2L37.2,52.2z M39.3,52.2c0-0.3-0.2-0.5-0.5-0.5c-0.3,0-0.5,0.2-0.5,0.5c0,0.3,0.2,0.5,0.5,0.5
		C39.1,52.7,39.3,52.5,39.3,52.2L39.3,52.2z"/>
	<path fill="#FFFFFF" d="M15.9,50.7c0-0.3-0.2-0.5-0.5-0.5c-0.3,0-0.5,0.2-0.5,0.5c0,0.3,0.2,0.5,0.5,0.5
		C15.7,51.2,15.9,51,15.9,50.7L15.9,50.7z M18.1,50.7c0-0.3-0.2-0.5-0.5-0.5c-0.3,0-0.5,0.2-0.5,0.5c0,0.3,0.2,0.5,0.5,0.5
		C17.8,51.2,18.1,51,18.1,50.7L18.1,50.7z M20.2,50.7c0-0.3-0.2-0.5-0.5-0.5c-0.3,0-0.5,0.2-0.5,0.5c0,0.3,0.2,0.5,0.5,0.5
		C20,51.2,20.2,51,20.2,50.7L20.2,50.7z M22.3,50.7c0-0.3-0.2-0.5-0.5-0.5c-0.3,0-0.5,0.2-0.5,0.5c0,0.3,0.2,0.5,0.5,0.5
		C22.1,51.2,22.3,51,22.3,50.7L22.3,50.7z M24.4,50.7c0-0.3-0.2-0.5-0.5-0.5c-0.3,0-0.5,0.2-0.5,0.5c0,0.3,0.2,0.5,0.5,0.5
		C24.2,51.2,24.4,51,24.4,50.7L24.4,50.7z M26.6,50.7c0-0.3-0.2-0.5-0.5-0.5c-0.3,0-0.5,0.2-0.5,0.5c0,0.3,0.2,0.5,0.5,0.5
		C26.3,51.2,26.6,51,26.6,50.7L26.6,50.7z M28.7,50.7c0-0.3-0.2-0.5-0.5-0.5c-0.3,0-0.5,0.2-0.5,0.5c0,0.3,0.2,0.5,0.5,0.5
		C28.5,51.2,28.7,51,28.7,50.7L28.7,50.7z M30.8,50.7c0-0.3-0.2-0.5-0.5-0.5c-0.3,0-0.5,0.2-0.5,0.5c0,0.3,0.2,0.5,0.5,0.5
		C30.6,51.2,30.8,51,30.8,50.7L30.8,50.7z M32.9,50.7c0-0.3-0.2-0.5-0.5-0.5c-0.3,0-0.5,0.2-0.5,0.5c0,0.3,0.2,0.5,0.5,0.5
		C32.7,51.2,32.9,51,32.9,50.7L32.9,50.7z M37.2,50.7c0-0.3-0.2-0.5-0.5-0.5c-0.3,0-0.5,0.2-0.5,0.5c0,0.3,0.2,0.5,0.5,0.5
		C37,51.2,37.2,51,37.2,50.7L37.2,50.7z M39.3,50.7c0-0.3-0.2-0.5-0.5-0.5c-0.3,0-0.5,0.2-0.5,0.5c0,0.3,0.2,0.5,0.5,0.5
		C39.1,51.2,39.3,51,39.3,50.7L39.3,50.7z M41.5,50.7c0-0.3-0.2-0.5-0.5-0.5c-0.3,0-0.5,0.2-0.5,0.5c0,0.3,0.2,0.5,0.5,0.5
		C41.2,51.2,41.5,51,41.5,50.7L41.5,50.7z M43.6,50.7c0-0.3-0.2-0.5-0.5-0.5c-0.3,0-0.5,0.2-0.5,0.5c0,0.3,0.2,0.5,0.5,0.5
		C43.3,51.2,43.6,51,43.6,50.7L43.6,50.7z M45.7,50.7c0-0.3-0.2-0.5-0.5-0.5c-0.3,0-0.5,0.2-0.5,0.5c0,0.3,0.2,0.5,0.5,0.5
		C45.5,51.2,45.7,51,45.7,50.7L45.7,50.7z M47.8,50.7c0-0.3-0.2-0.5-0.5-0.5c-0.3,0-0.5,0.2-0.5,0.5c0,0.3,0.2,0.5,0.5,0.5
		C47.6,51.2,47.8,51,47.8,50.7L47.8,50.7z M50,50.7c0-0.3-0.2-0.5-0.5-0.5c-0.3,0-0.5,0.2-0.5,0.5c0,0.3,0.2,0.5,0.5,0.5
		C49.7,51.2,50,51,50,50.7L50,50.7z M52.1,50.7c0-0.3-0.2-0.5-0.5-0.5c-0.3,0-0.5,0.2-0.5,0.5c0,0.3,0.2,0.5,0.5,0.5
		C51.8,51.2,52.1,51,52.1,50.7L52.1,50.7z M54.2,50.7c0-0.3-0.2-0.5-0.5-0.5c-0.3,0-0.5,0.2-0.5,0.5c0,0.3,0.2,0.5,0.5,0.5
		C54,51.2,54.2,51,54.2,50.7L54.2,50.7z"/>
	<path fill="#FFFFFF" d="M7.4,49.2c0-0.3-0.2-0.5-0.5-0.5c-0.3,0-0.5,0.2-0.5,0.5c0,0.3,0.2,0.5,0.5,0.5C7.2,49.7,7.4,49.5,7.4,49.2
		L7.4,49.2z M11.7,49.2c0-0.3-0.2-0.5-0.5-0.5c-0.3,0-0.5,0.2-0.5,0.5c0,0.3,0.2,0.5,0.5,0.5C11.5,49.7,11.7,49.5,11.7,49.2
		L11.7,49.2z M13.8,49.2c0-0.3-0.2-0.5-0.5-0.5c-0.3,0-0.5,0.2-0.5,0.5c0,0.3,0.2,0.5,0.5,0.5C13.6,49.7,13.8,49.5,13.8,49.2
		L13.8,49.2z M15.9,49.2c0-0.3-0.2-0.5-0.5-0.5c-0.3,0-0.5,0.2-0.5,0.5c0,0.3,0.2,0.5,0.5,0.5C15.7,49.7,15.9,49.5,15.9,49.2
		L15.9,49.2z M18.1,49.2c0-0.3-0.2-0.5-0.5-0.5c-0.3,0-0.5,0.2-0.5,0.5c0,0.3,0.2,0.5,0.5,0.5C17.8,49.7,18.1,49.5,18.1,49.2
		L18.1,49.2z M20.2,49.2c0-0.3-0.2-0.5-0.5-0.5c-0.3,0-0.5,0.2-0.5,0.5c0,0.3,0.2,0.5,0.5,0.5C20,49.7,20.2,49.5,20.2,49.2
		L20.2,49.2z M22.3,49.2c0-0.3-0.2-0.5-0.5-0.5c-0.3,0-0.5,0.2-0.5,0.5c0,0.3,0.2,0.5,0.5,0.5C22.1,49.7,22.3,49.5,22.3,49.2
		L22.3,49.2z M24.4,49.2c0-0.3-0.2-0.5-0.5-0.5c-0.3,0-0.5,0.2-0.5,0.5c0,0.3,0.2,0.5,0.5,0.5C24.2,49.7,24.4,49.5,24.4,49.2
		L24.4,49.2z M26.6,49.2c0-0.3-0.2-0.5-0.5-0.5c-0.3,0-0.5,0.2-0.5,0.5c0,0.3,0.2,0.5,0.5,0.5C26.3,49.7,26.6,49.5,26.6,49.2
		L26.6,49.2z M28.7,49.2c0-0.3-0.2-0.5-0.5-0.5c-0.3,0-0.5,0.2-0.5,0.5c0,0.3,0.2,0.5,0.5,0.5C28.5,49.7,28.7,49.5,28.7,49.2
		L28.7,49.2z M30.8,49.2c0-0.3-0.2-0.5-0.5-0.5c-0.3,0-0.5,0.2-0.5,0.5c0,0.3,0.2,0.5,0.5,0.5C30.6,49.7,30.8,49.5,30.8,49.2
		L30.8,49.2z M39.3,49.2c0-0.3-0.2-0.5-0.5-0.5c-0.3,0-0.5,0.2-0.5,0.5c0,0.3,0.2,0.5,0.5,0.5C39.1,49.7,39.3,49.5,39.3,49.2
		L39.3,49.2z M41.5,49.2c0-0.3-0.2-0.5-0.5-0.5c-0.3,0-0.5,0.2-0.5,0.5c0,0.3,0.2,0.5,0.5,0.5C41.2,49.7,41.5,49.5,41.5,49.2
		L41.5,49.2z M43.6,49.2c0-0.3-0.2-0.5-0.5-0.5c-0.3,0-0.5,0.2-0.5,0.5c0,0.3,0.2,0.5,0.5,0.5C43.3,49.7,43.6,49.5,43.6,49.2
		L43.6,49.2z M45.7,49.2c0-0.3-0.2-0.5-0.5-0.5c-0.3,0-0.5,0.2-0.5,0.5c0,0.3,0.2,0.5,0.5,0.5C45.5,49.7,45.7,49.5,45.7,49.2
		L45.7,49.2z M47.8,49.2c0-0.3-0.2-0.5-0.5-0.5c-0.3,0-0.5,0.2-0.5,0.5c0,0.3,0.2,0.5,0.5,0.5C47.6,49.7,47.8,49.5,47.8,49.2
		L47.8,49.2z M50,49.2c0-0.3-0.2-0.5-0.5-0.5c-0.3,0-0.5,0.2-0.5,0.5c0,0.3,0.2,0.5,0.5,0.5C49.7,49.7,50,49.5,50,49.2L50,49.2z
		 M52.1,49.2c0-0.3-0.2-0.5-0.5-0.5c-0.3,0-0.5,0.2-0.5,0.5c0,0.3,0.2,0.5,0.5,0.5C51.8,49.7,52.1,49.5,52.1,49.2L52.1,49.2z
		 M56.3,49.2c0-0.3-0.2-0.5-0.5-0.5c-0.3,0-0.5,0.2-0.5,0.5c0,0.3,0.2,0.5,0.5,0.5C56.1,49.7,56.3,49.5,56.3,49.2L56.3,49.2z
		 M60.6,49.2c0-0.3-0.2-0.5-0.5-0.5c-0.3,0-0.5,0.2-0.5,0.5c0,0.3,0.2,0.5,0.5,0.5C60.3,49.7,60.6,49.5,60.6,49.2L60.6,49.2z"/>
	<path fill="#FFFFFF" d="M1.1,46.2c0-0.3-0.2-0.5-0.5-0.5c-0.3,0-0.5,0.2-0.5,0.5c0,0.3,0.2,0.5,0.5,0.5C0.8,46.7,1.1,46.5,1.1,46.2
		L1.1,46.2z M3.2,46.2c0-0.3-0.2-0.5-0.5-0.5c-0.3,0-0.5,0.2-0.5,0.5c0,0.3,0.2,0.5,0.5,0.5C3,46.7,3.2,46.5,3.2,46.2L3.2,46.2z
		 M7.4,46.2c0-0.3-0.2-0.5-0.5-0.5c-0.3,0-0.5,0.2-0.5,0.5c0,0.3,0.2,0.5,0.5,0.5C7.2,46.7,7.4,46.5,7.4,46.2L7.4,46.2z M9.6,46.2
		c0-0.3-0.2-0.5-0.5-0.5c-0.3,0-0.5,0.2-0.5,0.5c0,0.3,0.2,0.5,0.5,0.5C9.3,46.7,9.6,46.5,9.6,46.2L9.6,46.2z M13.8,46.2
		c0-0.3-0.2-0.5-0.5-0.5c-0.3,0-0.5,0.2-0.5,0.5c0,0.3,0.2,0.5,0.5,0.5C13.6,46.7,13.8,46.5,13.8,46.2L13.8,46.2z M15.9,46.2
		c0-0.3-0.2-0.5-0.5-0.5c-0.3,0-0.5,0.2-0.5,0.5c0,0.3,0.2,0.5,0.5,0.5C15.7,46.7,15.9,46.5,15.9,46.2L15.9,46.2z M18.1,46.2
		c0-0.3-0.2-0.5-0.5-0.5c-0.3,0-0.5,0.2-0.5,0.5c0,0.3,0.2,0.5,0.5,0.5C17.8,46.7,18.1,46.5,18.1,46.2L18.1,46.2z M20.2,46.2
		c0-0.3-0.2-0.5-0.5-0.5c-0.3,0-0.5,0.2-0.5,0.5c0,0.3,0.2,0.5,0.5,0.5C20,46.7,20.2,46.5,20.2,46.2L20.2,46.2z M22.3,46.2
		c0-0.3-0.2-0.5-0.5-0.5c-0.3,0-0.5,0.2-0.5,0.5c0,0.3,0.2,0.5,0.5,0.5C22.1,46.7,22.3,46.5,22.3,46.2L22.3,46.2z M30.8,46.2
		c0-0.3-0.2-0.5-0.5-0.5c-0.3,0-0.5,0.2-0.5,0.5c0,0.3,0.2,0.5,0.5,0.5C30.6,46.7,30.8,46.5,30.8,46.2L30.8,46.2z M32.9,46.2
		c0-0.3-0.2-0.5-0.5-0.5c-0.3,0-0.5,0.2-0.5,0.5c0,0.3,0.2,0.5,0.5,0.5C32.7,46.7,32.9,46.5,32.9,46.2L32.9,46.2z M35.1,46.2
		c0-0.3-0.2-0.5-0.5-0.5c-0.3,0-0.5,0.2-0.5,0.5c0,0.3,0.2,0.5,0.5,0.5C34.8,46.7,35.1,46.5,35.1,46.2L35.1,46.2z M37.2,46.2
		c0-0.3-0.2-0.5-0.5-0.5c-0.3,0-0.5,0.2-0.5,0.5c0,0.3,0.2,0.5,0.5,0.5C37,46.7,37.2,46.5,37.2,46.2L37.2,46.2z M39.3,46.2
		c0-0.3-0.2-0.5-0.5-0.5c-0.3,0-0.5,0.2-0.5,0.5c0,0.3,0.2,0.5,0.5,0.5C39.1,46.7,39.3,46.5,39.3,46.2L39.3,46.2z M41.5,46.2
		c0-0.3-0.2-0.5-0.5-0.5c-0.3,0-0.5,0.2-0.5,0.5c0,0.3,0.2,0.5,0.5,0.5C41.2,46.7,41.5,46.5,41.5,46.2L41.5,46.2z M43.6,46.2
		c0-0.3-0.2-0.5-0.5-0.5c-0.3,0-0.5,0.2-0.5,0.5c0,0.3,0.2,0.5,0.5,0.5C43.3,46.7,43.6,46.5,43.6,46.2L43.6,46.2z M45.7,46.2
		c0-0.3-0.2-0.5-0.5-0.5c-0.3,0-0.5,0.2-0.5,0.5c0,0.3,0.2,0.5,0.5,0.5C45.5,46.7,45.7,46.5,45.7,46.2L45.7,46.2z M47.8,46.2
		c0-0.3-0.2-0.5-0.5-0.5c-0.3,0-0.5,0.2-0.5,0.5c0,0.3,0.2,0.5,0.5,0.5C47.6,46.7,47.8,46.5,47.8,46.2L47.8,46.2z M50,46.2
		c0-0.3-0.2-0.5-0.5-0.5c-0.3,0-0.5,0.2-0.5,0.5c0,0.3,0.2,0.5,0.5,0.5C49.7,46.7,50,46.5,50,46.2L50,46.2z M52.1,46.2
		c0-0.3-0.2-0.5-0.5-0.5c-0.3,0-0.5,0.2-0.5,0.5c0,0.3,0.2,0.5,0.5,0.5C51.8,46.7,52.1,46.5,52.1,46.2L52.1,46.2z M56.3,46.2
		c0-0.3-0.2-0.5-0.5-0.5c-0.3,0-0.5,0.2-0.5,0.5c0,0.3,0.2,0.5,0.5,0.5C56.1,46.7,56.3,46.5,56.3,46.2L56.3,46.2z"/>
	<path fill="#FFFFFF" d="M7.4,44.7c0-0.3-0.2-0.5-0.5-0.5c-0.3,0-0.5,0.2-0.5,0.5c0,0.3,0.2,0.5,0.5,0.5C7.2,45.2,7.4,45,7.4,44.7
		L7.4,44.7z M11.7,44.7c0-0.3-0.2-0.5-0.5-0.5c-0.3,0-0.5,0.2-0.5,0.5c0,0.3,0.2,0.5,0.5,0.5C11.5,45.2,11.7,45,11.7,44.7L11.7,44.7
		z M13.8,44.7c0-0.3-0.2-0.5-0.5-0.5c-0.3,0-0.5,0.2-0.5,0.5c0,0.3,0.2,0.5,0.5,0.5C13.6,45.2,13.8,45,13.8,44.7L13.8,44.7z
		 M15.9,44.7c0-0.3-0.2-0.5-0.5-0.5c-0.3,0-0.5,0.2-0.5,0.5c0,0.3,0.2,0.5,0.5,0.5C15.7,45.2,15.9,45,15.9,44.7L15.9,44.7z
		 M18.1,44.7c0-0.3-0.2-0.5-0.5-0.5c-0.3,0-0.5,0.2-0.5,0.5c0,0.3,0.2,0.5,0.5,0.5C17.8,45.2,18.1,45,18.1,44.7L18.1,44.7z
		 M20.2,44.7c0-0.3-0.2-0.5-0.5-0.5c-0.3,0-0.5,0.2-0.5,0.5c0,0.3,0.2,0.5,0.5,0.5C20,45.2,20.2,45,20.2,44.7L20.2,44.7z M22.3,44.7
		c0-0.3-0.2-0.5-0.5-0.5c-0.3,0-0.5,0.2-0.5,0.5c0,0.3,0.2,0.5,0.5,0.5C22.1,45.2,22.3,45,22.3,44.7L22.3,44.7z M24.4,44.7
		c0-0.3-0.2-0.5-0.5-0.5c-0.3,0-0.5,0.2-0.5,0.5c0,0.3,0.2,0.5,0.5,0.5C24.2,45.2,24.4,45,24.4,44.7L24.4,44.7z M28.7,44.7
		c0-0.3-0.2-0.5-0.5-0.5c-0.3,0-0.5,0.2-0.5,0.5c0,0.3,0.2,0.5,0.5,0.5C28.5,45.2,28.7,45,28.7,44.7L28.7,44.7z M30.8,44.7
		c0-0.3-0.2-0.5-0.5-0.5c-0.3,0-0.5,0.2-0.5,0.5c0,0.3,0.2,0.5,0.5,0.5C30.6,45.2,30.8,45,30.8,44.7L30.8,44.7z M32.9,44.7
		c0-0.3-0.2-0.5-0.5-0.5c-0.3,0-0.5,0.2-0.5,0.5c0,0.3,0.2,0.5,0.5,0.5C32.7,45.2,32.9,45,32.9,44.7L32.9,44.7z M35.1,44.7
		c0-0.3-0.2-0.5-0.5-0.5c-0.3,0-0.5,0.2-0.5,0.5c0,0.3,0.2,0.5,0.5,0.5C34.8,45.2,35.1,45,35.1,44.7L35.1,44.7z M37.2,44.7
		c0-0.3-0.2-0.5-0.5-0.5c-0.3,0-0.5,0.2-0.5,0.5c0,0.3,0.2,0.5,0.5,0.5C37,45.2,37.2,45,37.2,44.7L37.2,44.7z M39.3,44.7
		c0-0.3-0.2-0.5-0.5-0.5c-0.3,0-0.5,0.2-0.5,0.5c0,0.3,0.2,0.5,0.5,0.5C39.1,45.2,39.3,45,39.3,44.7L39.3,44.7z M41.5,44.7
		c0-0.3-0.2-0.5-0.5-0.5c-0.3,0-0.5,0.2-0.5,0.5c0,0.3,0.2,0.5,0.5,0.5C41.2,45.2,41.5,45,41.5,44.7L41.5,44.7z M43.6,44.7
		c0-0.3-0.2-0.5-0.5-0.5c-0.3,0-0.5,0.2-0.5,0.5c0,0.3,0.2,0.5,0.5,0.5C43.3,45.2,43.6,45,43.6,44.7L43.6,44.7z M45.7,44.7
		c0-0.3-0.2-0.5-0.5-0.5c-0.3,0-0.5,0.2-0.5,0.5c0,0.3,0.2,0.5,0.5,0.5C45.5,45.2,45.7,45,45.7,44.7L45.7,44.7z M47.8,44.7
		c0-0.3-0.2-0.5-0.5-0.5c-0.3,0-0.5,0.2-0.5,0.5c0,0.3,0.2,0.5,0.5,0.5C47.6,45.2,47.8,45,47.8,44.7L47.8,44.7z M50,44.7
		c0-0.3-0.2-0.5-0.5-0.5c-0.3,0-0.5,0.2-0.5,0.5c0,0.3,0.2,0.5,0.5,0.5C49.7,45.2,50,45,50,44.7L50,44.7z"/>
	<path fill="#FFFFFF" d="M22.3,43.2c0-0.3-0.2-0.5-0.5-0.5c-0.3,0-0.5,0.2-0.5,0.5c0,0.3,0.2,0.5,0.5,0.5
		C22.1,43.7,22.3,43.5,22.3,43.2L22.3,43.2z M24.4,43.2c0-0.3-0.2-0.5-0.5-0.5c-0.3,0-0.5,0.2-0.5,0.5c0,0.3,0.2,0.5,0.5,0.5
		C24.2,43.7,24.4,43.5,24.4,43.2L24.4,43.2z M28.7,43.2c0-0.3-0.2-0.5-0.5-0.5c-0.3,0-0.5,0.2-0.5,0.5c0,0.3,0.2,0.5,0.5,0.5
		C28.5,43.7,28.7,43.5,28.7,43.2L28.7,43.2z M30.8,43.2c0-0.3-0.2-0.5-0.5-0.5c-0.3,0-0.5,0.2-0.5,0.5c0,0.3,0.2,0.5,0.5,0.5
		C30.6,43.7,30.8,43.5,30.8,43.2L30.8,43.2z"/>
	<path fill="#FFFFFF" d="M22.3,41.7c0-0.3-0.2-0.5-0.5-0.5c-0.3,0-0.5,0.2-0.5,0.5c0,0.3,0.2,0.5,0.5,0.5
		C22.1,42.2,22.3,42,22.3,41.7L22.3,41.7z M24.4,41.7c0-0.3-0.2-0.5-0.5-0.5c-0.3,0-0.5,0.2-0.5,0.5c0,0.3,0.2,0.5,0.5,0.5
		C24.2,42.2,24.4,42,24.4,41.7L24.4,41.7z M28.7,41.7c0-0.3-0.2-0.5-0.5-0.5c-0.3,0-0.5,0.2-0.5,0.5c0,0.3,0.2,0.5,0.5,0.5
		C28.5,42.2,28.7,42,28.7,41.7L28.7,41.7z M30.8,41.7c0-0.3-0.2-0.5-0.5-0.5c-0.3,0-0.5,0.2-0.5,0.5c0,0.3,0.2,0.5,0.5,0.5
		C30.6,42.2,30.8,42,30.8,41.7L30.8,41.7z"/>
	<path fill="#FFFFFF" d="M22.3,40.2c0-0.3-0.2-0.5-0.5-0.5c-0.3,0-0.5,0.2-0.5,0.5c0,0.3,0.2,0.5,0.5,0.5
		C22.1,40.7,22.3,40.5,22.3,40.2L22.3,40.2z M24.4,40.2c0-0.3-0.2-0.5-0.5-0.5c-0.3,0-0.5,0.2-0.5,0.5c0,0.3,0.2,0.5,0.5,0.5
		C24.2,40.7,24.4,40.5,24.4,40.2L24.4,40.2z M28.7,40.2c0-0.3-0.2-0.5-0.5-0.5c-0.3,0-0.5,0.2-0.5,0.5c0,0.3,0.2,0.5,0.5,0.5
		C28.5,40.7,28.7,40.5,28.7,40.2L28.7,40.2z M30.8,40.2c0-0.3-0.2-0.5-0.5-0.5c-0.3,0-0.5,0.2-0.5,0.5c0,0.3,0.2,0.5,0.5,0.5
		C30.6,40.7,30.8,40.5,30.8,40.2L30.8,40.2z"/>
	<path fill="#FFFFFF" d="M22.3,38.7c0-0.3-0.2-0.5-0.5-0.5c-0.3,0-0.5,0.2-0.5,0.5c0,0.3,0.2,0.5,0.5,0.5
		C22.1,39.2,22.3,39,22.3,38.7L22.3,38.7z M24.4,38.7c0-0.3-0.2-0.5-0.5-0.5c-0.3,0-0.5,0.2-0.5,0.5c0,0.3,0.2,0.5,0.5,0.5
		C24.2,39.2,24.4,39,24.4,38.7L24.4,38.7z M28.7,38.7c0-0.3-0.2-0.5-0.5-0.5c-0.3,0-0.5,0.2-0.5,0.5c0,0.3,0.2,0.5,0.5,0.5
		C28.5,39.2,28.7,39,28.7,38.7L28.7,38.7z M30.8,38.7c0-0.3-0.2-0.5-0.5-0.5c-0.3,0-0.5,0.2-0.5,0.5c0,0.3,0.2,0.5,0.5,0.5
		C30.6,39.2,30.8,39,30.8,38.7L30.8,38.7z"/>
	<path fill="#FFFFFF" d="M22.3,37.2c0-0.3-0.2-0.5-0.5-0.5c-0.3,0-0.5,0.2-0.5,0.5c0,0.3,0.2,0.5,0.5,0.5
		C22.1,37.7,22.3,37.5,22.3,37.2L22.3,37.2z M24.4,37.2c0-0.3-0.2-0.5-0.5-0.5c-0.3,0-0.5,0.2-0.5,0.5c0,0.3,0.2,0.5,0.5,0.5
		C24.2,37.7,24.4,37.5,24.4,37.2L24.4,37.2z M28.7,37.2c0-0.3-0.2-0.5-0.5-0.5c-0.3,0-0.5,0.2-0.5,0.5c0,0.3,0.2,0.5,0.5,0.5
		C28.5,37.7,28.7,37.5,28.7,37.2L28.7,37.2z M30.8,37.2c0-0.3-0.2-0.5-0.5-0.5c-0.3,0-0.5,0.2-0.5,0.5c0,0.3,0.2,0.5,0.5,0.5
		C30.6,37.7,30.8,37.5,30.8,37.2L30.8,37.2z"/>
	<path fill="#FFFFFF" d="M22.3,35.7c0-0.3-0.2-0.5-0.5-0.5c-0.3,0-0.5,0.2-0.5,0.5c0,0.3,0.2,0.5,0.5,0.5
		C22.1,36.2,22.3,36,22.3,35.7L22.3,35.7z M24.4,35.7c0-0.3-0.2-0.5-0.5-0.5c-0.3,0-0.5,0.2-0.5,0.5c0,0.3,0.2,0.5,0.5,0.5
		C24.2,36.2,24.4,36,24.4,35.7L24.4,35.7z M28.7,35.7c0-0.3-0.2-0.5-0.5-0.5c-0.3,0-0.5,0.2-0.5,0.5c0,0.3,0.2,0.5,0.5,0.5
		C28.5,36.2,28.7,36,28.7,35.7L28.7,35.7z M30.8,35.7c0-0.3-0.2-0.5-0.5-0.5c-0.3,0-0.5,0.2-0.5,0.5c0,0.3,0.2,0.5,0.5,0.5
		C30.6,36.2,30.8,36,30.8,35.7L30.8,35.7z"/>
	<path fill="#FFFFFF" d="M22.3,34.2c0-0.3-0.2-0.5-0.5-0.5c-0.3,0-0.5,0.2-0.5,0.5c0,0.3,0.2,0.5,0.5,0.5
		C22.1,34.7,22.3,34.5,22.3,34.2L22.3,34.2z M24.4,34.2c0-0.3-0.2-0.5-0.5-0.5c-0.3,0-0.5,0.2-0.5,0.5c0,0.3,0.2,0.5,0.5,0.5
		C24.2,34.7,24.4,34.5,24.4,34.2L24.4,34.2z M28.7,34.2c0-0.3-0.2-0.5-0.5-0.5c-0.3,0-0.5,0.2-0.5,0.5c0,0.3,0.2,0.5,0.5,0.5
		C28.5,34.7,28.7,34.5,28.7,34.2L28.7,34.2z M30.8,34.2c0-0.3-0.2-0.5-0.5-0.5c-0.3,0-0.5,0.2-0.5,0.5c0,0.3,0.2,0.5,0.5,0.5
		C30.6,34.7,30.8,34.5,30.8,34.2L30.8,34.2z"/>
	<path fill="#FFFFFF" d="M22.3,32.7c0-0.3-0.2-0.5-0.5-0.5c-0.3,0-0.5,0.2-0.5,0.5c0,0.3,0.2,0.5,0.5,0.5
		C22.1,33.2,22.3,33,22.3,32.7L22.3,32.7z M24.4,32.7c0-0.3-0.2-0.5-0.5-0.5c-0.3,0-0.5,0.2-0.5,0.5c0,0.3,0.2,0.5,0.5,0.5
		C24.2,33.2,24.4,33,24.4,32.7L24.4,32.7z M28.7,32.7c0-0.3-0.2-0.5-0.5-0.5c-0.3,0-0.5,0.2-0.5,0.5c0,0.3,0.2,0.5,0.5,0.5
		C28.5,33.2,28.7,33,28.7,32.7L28.7,32.7z M30.8,32.7c0-0.3-0.2-0.5-0.5-0.5c-0.3,0-0.5,0.2-0.5,0.5c0,0.3,0.2,0.5,0.5,0.5
		C30.6,33.2,30.8,33,30.8,32.7L30.8,32.7z"/>
	<path fill="#FFFFFF" d="M22.3,31.2c0-0.3-0.2-0.5-0.5-0.5c-0.3,0-0.5,0.2-0.5,0.5c0,0.3,0.2,0.5,0.5,0.5
		C22.1,31.7,22.3,31.5,22.3,31.2L22.3,31.2z M24.4,31.2c0-0.3-0.2-0.5-0.5-0.5c-0.3,0-0.5,0.2-0.5,0.5c0,0.3,0.2,0.5,0.5,0.5
		C24.2,31.7,24.4,31.5,24.4,31.2L24.4,31.2z M28.7,31.2c0-0.3-0.2-0.5-0.5-0.5c-0.3,0-0.5,0.2-0.5,0.5c0,0.3,0.2,0.5,0.5,0.5
		C28.5,31.7,28.7,31.5,28.7,31.2L28.7,31.2z"/>
	<path fill="#FFFFFF" d="M22.3,29.7c0-0.3-0.2-0.5-0.5-0.5c-0.3,0-0.5,0.2-0.5,0.5c0,0.3,0.2,0.5,0.5,0.5
		C22.1,30.2,22.3,30,22.3,29.7L22.3,29.7z M24.4,29.7c0-0.3-0.2-0.5-0.5-0.5c-0.3,0-0.5,0.2-0.5,0.5c0,0.3,0.2,0.5,0.5,0.5
		C24.2,30.2,24.4,30,24.4,29.7L24.4,29.7z M28.7,29.7c0-0.3-0.2-0.5-0.5-0.5c-0.3,0-0.5,0.2-0.5,0.5c0,0.3,0.2,0.5,0.5,0.5
		C28.5,30.2,28.7,30,28.7,29.7L28.7,29.7z"/>
	<path fill="#FFFFFF" d="M24.4,28.2c0-0.3-0.2-0.5-0.5-0.5c-0.3,0-0.5,0.2-0.5,0.5c0,0.3,0.2,0.5,0.5,0.5
		C24.2,28.7,24.4,28.5,24.4,28.2L24.4,28.2z"/>
	<path fill="#FFFFFF" d="M22.3,26.7c0-0.3-0.2-0.5-0.5-0.5c-0.3,0-0.5,0.2-0.5,0.5c0,0.3,0.2,0.5,0.5,0.5
		C22.1,27.2,22.3,27,22.3,26.7L22.3,26.7z M28.7,26.7c0-0.3-0.2-0.5-0.5-0.5c-0.3,0-0.5,0.2-0.5,0.5c0,0.3,0.2,0.5,0.5,0.5
		C28.5,27.2,28.7,27,28.7,26.7L28.7,26.7z"/>
	<path fill="#FFFFFF" d="M24.4,25.2c0-0.3-0.2-0.5-0.5-0.5c-0.3,0-0.5,0.2-0.5,0.5c0,0.3,0.2,0.5,0.5,0.5
		C24.2,25.7,24.4,25.5,24.4,25.2L24.4,25.2z"/>
	<path fill="#FFFFFF" d="M24.4,23.7c0-0.3-0.2-0.5-0.5-0.5c-0.3,0-0.5,0.2-0.5,0.5c0,0.3,0.2,0.5,0.5,0.5
		C24.2,24.2,24.4,24,24.4,23.7L24.4,23.7z"/>
	<path fill="#FFFFFF" d="M24.4,20.7c0-0.3-0.2-0.5-0.5-0.5c-0.3,0-0.5,0.2-0.5,0.5c0,0.3,0.2,0.5,0.5,0.5
		C24.2,21.2,24.4,21,24.4,20.7L24.4,20.7z"/>
	<path fill="#FFFFFF" d="M70.3,55.4v-0.5H67v5.3h0.6v-2.4h2.3v-0.5h-2.3v-2H70.3L70.3,55.4z M75,60.3l-2-5.3h-0.5l-2,5.3h0.6
		l0.4-1.2h2.3l0.4,1.2H75L75,60.3z M73.8,58.6h-2l1-2.8L73.8,58.6L73.8,58.6z M79.6,58.7H79c-0.1,0.7-0.6,1.1-1.3,1.1
		c-0.4,0-0.7-0.1-0.9-0.4c-0.3-0.3-0.4-0.7-0.4-1.8c0-1.1,0-1.5,0.4-1.8c0.2-0.2,0.6-0.4,0.9-0.4c0.7,0,1.1,0.4,1.3,1.1h0.6
		c-0.2-1-0.9-1.6-1.9-1.6c-0.5,0-1,0.2-1.4,0.6c-0.5,0.5-0.5,1-0.5,2.2c0,1.1,0,1.7,0.5,2.2c0.4,0.4,0.8,0.6,1.4,0.6
		C78.7,60.3,79.4,59.7,79.6,58.7L79.6,58.7z M84.7,60.3v-5.3h-0.6v2.4h-2.5v-2.4H81v5.3h0.6v-2.4h2.5v2.4H84.7L84.7,60.3z
		 M90.3,58.8c0-0.6-0.4-1.1-0.9-1.3c0.4-0.2,0.8-0.6,0.8-1.2c0-0.9-0.6-1.4-1.6-1.4h-2v5.3h2.1C89.6,60.3,90.3,59.7,90.3,58.8
		L90.3,58.8z M89.7,58.8c0,0.6-0.4,1-1.1,1h-1.5v-2h1.5C89.3,57.8,89.7,58.2,89.7,58.8L89.7,58.8z M89.6,56.3c0,0.6-0.5,0.9-1,0.9
		h-1.4v-1.9h1.4C89.2,55.4,89.6,55.7,89.6,56.3L89.6,56.3z M95.2,60.3v-0.5h-2.7v-1.9h2.3v-0.5h-2.3v-1.9h2.7v-0.5h-3.3v5.3H95.2
		L95.2,60.3z M100.4,60.3l-1.3-2.4c0.7-0.1,1.2-0.7,1.2-1.4c0-0.9-0.7-1.5-1.6-1.5h-2v5.3h0.6v-2.4h1.3l1.2,2.4H100.4L100.4,60.3z
		 M99.8,56.4c0,0.7-0.4,1-1.1,1h-1.4v-2h1.4C99.3,55.4,99.8,55.8,99.8,56.4L99.8,56.4z M105.2,60.3v-0.5h-2.7v-1.9h2.3v-0.5h-2.3
		v-1.9h2.7v-0.5h-3.3v5.3H105.2L105.2,60.3z M107.3,60.3v-5.3h-0.6v5.3H107.3L107.3,60.3z M112.7,58.7h-0.6
		c-0.1,0.7-0.6,1.1-1.3,1.1c-0.4,0-0.7-0.1-0.9-0.4c-0.3-0.3-0.4-0.7-0.4-1.8c0-1.1,0-1.5,0.4-1.8c0.2-0.2,0.6-0.4,0.9-0.4
		c0.7,0,1.1,0.4,1.3,1.1h0.6c-0.2-1-0.9-1.6-1.9-1.6c-0.5,0-1,0.2-1.4,0.6c-0.5,0.5-0.5,1-0.5,2.2c0,1.1,0,1.7,0.5,2.2
		c0.4,0.4,0.8,0.6,1.4,0.6C111.8,60.3,112.5,59.7,112.7,58.7L112.7,58.7z M117.8,60.3v-5.3h-0.6v2.4h-2.5v-2.4h-0.6v5.3h0.6v-2.4
		h2.5v2.4H117.8L117.8,60.3z M122.5,60.3v-5.3H122v5.3H122.5L122.5,60.3z M128.3,60.3v-5.3h-0.6v4.3l-2.8-4.3h-0.5v5.3h0.6V56
		l2.8,4.3H128.3L128.3,60.3z M133.4,55.4v-0.5H130v5.3h0.6v-2.4h2.3v-0.5h-2.3v-2H133.4L133.4,55.4z M138.1,57.6
		c0-1.1,0-1.7-0.5-2.2c-0.4-0.4-0.8-0.6-1.4-0.6c-0.5,0-1,0.2-1.4,0.6c-0.5,0.5-0.5,1-0.5,2.2c0,1.1,0,1.7,0.5,2.2
		c0.4,0.4,0.8,0.6,1.4,0.6c0.5,0,1-0.2,1.4-0.6C138.1,59.2,138.1,58.7,138.1,57.6L138.1,57.6z M137.5,57.6c0,1.1,0,1.5-0.4,1.8
		c-0.2,0.2-0.6,0.4-0.9,0.4c-0.4,0-0.7-0.1-0.9-0.4c-0.3-0.3-0.4-0.7-0.4-1.8c0-1.1,0-1.5,0.4-1.8c0.2-0.2,0.6-0.4,0.9-0.4
		c0.4,0,0.7,0.1,0.9,0.4C137.5,56.1,137.5,56.5,137.5,57.6L137.5,57.6z M143.4,60.3l-1.3-2.4c0.7-0.1,1.2-0.7,1.2-1.4
		c0-0.9-0.7-1.5-1.6-1.5h-2v5.3h0.6v-2.4h1.3l1.2,2.4H143.4L143.4,60.3z M142.7,56.4c0,0.7-0.4,1-1.1,1h-1.4v-2h1.4
		C142.3,55.4,142.7,55.8,142.7,56.4L142.7,56.4z M149.4,60.3v-5.3h-0.6l-1.7,3.8l-1.7-3.8h-0.6v5.3h0.6v-4.1l1.5,3.2h0.5l1.5-3.2
		v4.1H149.4L149.4,60.3z M155.1,60.3l-2-5.3h-0.5l-2,5.3h0.6l0.4-1.2h2.3l0.4,1.2H155.1L155.1,60.3z M153.9,58.6h-2l1-2.8
		L153.9,58.6L153.9,58.6z M159.1,55.4v-0.5h-3.7v0.5h1.5v4.8h0.6v-4.8H159.1L159.1,55.4z M161,60.3v-5.3h-0.6v5.3H161L161,60.3z
		 M166.8,60.3l-1.9-3.3l1.7-2.1h-0.7l-2.5,3.1v-3.1h-0.6v5.3h0.6v-1.5l1.1-1.3l1.6,2.8H166.8L166.8,60.3z"/>
	<path fill="#FFFFFF" d="M70.2,45.6v-1.3h-1.2v-0.7c0-0.4,0.2-0.6,0.6-0.6h0.7v-1.4h-1c-1.4,0-2,1-2,1.9v0.8h-0.7v1.3h0.7v5.3h1.7
		v-5.3H70.2L70.2,45.6z M77.3,47.5c0-1,0-2.2-0.7-2.8c-0.4-0.4-1-0.6-1.7-0.6c-0.7,0-1.2,0.2-1.6,0.7v-3.1h-1.7v9.3h1.6v-0.6
		c0.5,0.5,1,0.7,1.7,0.7c0.7,0,1.3-0.2,1.7-0.6C77.3,49.6,77.3,48.5,77.3,47.5L77.3,47.5z M75.6,47.5c0,1.1-0.1,2-1.1,2
		c-1,0-1.1-0.8-1.1-2c0-1.1,0.1-1.9,1.1-1.9C75.5,45.5,75.6,46.4,75.6,47.5L75.6,47.5z M81.1,50.9v-6.8h-1.7v6.8H81.1L81.1,50.9z
		 M81.1,42.9v-1.4h-1.7v1.4H81.1L81.1,42.9z"/>
	<path fill="#FFFFFF" d="M70.7,31.5v-3.6h-0.6v3.5c0,0.8-0.5,1.3-1.3,1.3c-0.8,0-1.3-0.5-1.3-1.3v-3.5H67v3.6c0,1.1,0.8,1.8,1.9,1.8
		C69.9,33.3,70.7,32.6,70.7,31.5L70.7,31.5z M76.4,33.3v-5.3h-0.6v4.3l-2.8-4.3h-0.5v5.3H73V29l2.8,4.3H76.4L76.4,33.3z M78.8,33.3
		v-5.3h-0.6v5.3H78.8L78.8,33.3z M84.2,27.9h-0.6l-1.4,4.3l-1.4-4.3h-0.6l1.8,5.3h0.5L84.2,27.9L84.2,27.9z M89,33.3v-0.5h-2.7v-1.9
		h2.3v-0.5h-2.3v-1.9H89v-0.5h-3.3v5.3H89L89,33.3z M94.1,33.3l-1.3-2.4c0.7-0.1,1.2-0.7,1.2-1.4c0-0.9-0.7-1.5-1.6-1.5h-2v5.3H91
		v-2.4h1.3l1.2,2.4H94.1L94.1,33.3z M93.5,29.4c0,0.7-0.4,1-1.1,1H91v-2h1.4C93,28.4,93.5,28.8,93.5,29.4L93.5,29.4z M98.8,31.8
		c0-0.4-0.2-0.8-0.4-1.1c-0.2-0.2-0.5-0.3-1-0.4l-0.6-0.1c-0.3,0-0.6-0.2-0.7-0.3c-0.2-0.1-0.2-0.4-0.2-0.6c0-0.6,0.4-1,1.1-1
		c0.6,0,0.9,0.2,1.2,0.5l0.4-0.4c-0.5-0.4-0.9-0.6-1.6-0.6c-1.1,0-1.7,0.6-1.7,1.5c0,0.4,0.1,0.8,0.4,1c0.2,0.2,0.6,0.3,1,0.4
		l0.6,0.1c0.4,0.1,0.5,0.1,0.7,0.3c0.2,0.1,0.3,0.4,0.3,0.7c0,0.6-0.5,1-1.3,1c-0.6,0-1-0.1-1.5-0.6l-0.4,0.4c0.5,0.5,1,0.7,1.8,0.7
		C98.1,33.3,98.8,32.7,98.8,31.8L98.8,31.8z M101,33.3v-5.3h-0.6v5.3H101L101,33.3z M106.1,28.4v-0.5h-3.7v0.5h1.5v4.8h0.6v-4.8
		H106.1L106.1,28.4z M110.8,27.9h-0.6l-1.2,2.6l-1.3-2.6h-0.6l1.6,3.1v2.2h0.6v-2.2L110.8,27.9L110.8,27.9z M118,30.6
		c0-1.1,0-1.7-0.5-2.2c-0.4-0.4-0.8-0.6-1.4-0.6c-0.5,0-1,0.2-1.4,0.6c-0.5,0.5-0.5,1-0.5,2.2c0,1.1,0,1.7,0.5,2.2
		c0.4,0.4,0.8,0.6,1.4,0.6c0.5,0,1-0.2,1.4-0.6C118,32.2,118,31.7,118,30.6L118,30.6z M117.4,30.6c0,1.1,0,1.5-0.4,1.8
		c-0.2,0.2-0.6,0.4-0.9,0.4c-0.4,0-0.7-0.1-0.9-0.4c-0.3-0.3-0.4-0.7-0.4-1.8c0-1.1,0-1.5,0.4-1.8c0.2-0.2,0.6-0.4,0.9-0.4
		c0.4,0,0.7,0.1,0.9,0.4C117.4,29.1,117.4,29.5,117.4,30.6L117.4,30.6z M122.9,28.4v-0.5h-3.3v5.3h0.6v-2.4h2.3v-0.5h-2.3v-2H122.9
		L122.9,28.4z M130.1,33.3l-2-5.3h-0.5l-2,5.3h0.6l0.4-1.2h2.3l0.4,1.2H130.1L130.1,33.3z M128.9,31.6h-2l1-2.8L128.9,31.6
		L128.9,31.6z M135,29.5c0-1-0.7-1.6-1.6-1.6h-2v5.3h0.6v-2.2h1.4C134.3,31.1,135,30.4,135,29.5L135,29.5z M134.5,29.5
		c0,0.7-0.5,1.1-1.1,1.1H132v-2.1h1.4C134,28.4,134.5,28.8,134.5,29.5L134.5,29.5z M140,29.5c0-1-0.7-1.6-1.6-1.6h-2v5.3h0.6v-2.2
		h1.4C139.3,31.1,140,30.4,140,29.5L140,29.5z M139.4,29.5c0,0.7-0.5,1.1-1.1,1.1h-1.4v-2.1h1.4C138.9,28.4,139.4,28.8,139.4,29.5
		L139.4,29.5z M144.5,33.3v-0.5h-2.7v-4.8h-0.6v5.3H144.5L144.5,33.3z M146.3,33.3v-5.3h-0.6v5.3H146.3L146.3,33.3z M151.5,33.3
		v-0.5h-2.7v-1.9h2.3v-0.5h-2.3v-1.9h2.7v-0.5h-3.3v5.3H151.5L151.5,33.3z M156.7,30.5c0-0.7,0-1.6-0.5-2.1
		c-0.3-0.3-0.8-0.5-1.4-0.5H153v5.3h1.8c0.6,0,1-0.2,1.4-0.5C156.7,32.2,156.7,31.3,156.7,30.5L156.7,30.5z M156.1,30.5
		c0,0.7,0,1.4-0.4,1.8c-0.3,0.3-0.6,0.4-1,0.4h-1.2v-4.3h1.2c0.4,0,0.8,0.1,1,0.4C156.1,29.2,156.1,29.9,156.1,30.5L156.1,30.5z
		 M164.2,31.8c0-0.4-0.2-0.8-0.4-1.1c-0.2-0.2-0.5-0.3-1-0.4l-0.6-0.1c-0.3,0-0.6-0.2-0.7-0.3c-0.2-0.1-0.2-0.4-0.2-0.6
		c0-0.6,0.4-1,1.1-1c0.6,0,0.9,0.2,1.2,0.5l0.4-0.4c-0.5-0.4-0.9-0.6-1.6-0.6c-1.1,0-1.7,0.6-1.7,1.5c0,0.4,0.1,0.8,0.4,1
		c0.2,0.2,0.6,0.3,1,0.4l0.6,0.1c0.4,0.1,0.5,0.1,0.7,0.3c0.2,0.1,0.3,0.4,0.3,0.7c0,0.6-0.5,1-1.3,1c-0.6,0-1-0.1-1.5-0.6l-0.4,0.4
		c0.5,0.5,1,0.7,1.8,0.7C163.5,33.3,164.2,32.7,164.2,31.8L164.2,31.8z M169.1,31.7h-0.6c-0.1,0.7-0.6,1.1-1.3,1.1
		c-0.4,0-0.7-0.1-0.9-0.4c-0.3-0.3-0.4-0.7-0.4-1.8c0-1.1,0-1.5,0.4-1.8c0.2-0.2,0.6-0.4,0.9-0.4c0.7,0,1.1,0.4,1.3,1.1h0.6
		c-0.2-1-0.9-1.6-1.9-1.6c-0.5,0-1,0.2-1.4,0.6c-0.5,0.5-0.5,1-0.5,2.2c0,1.1,0,1.7,0.5,2.2c0.4,0.4,0.8,0.6,1.4,0.6
		C168.2,33.3,168.9,32.7,169.1,31.7L169.1,31.7z M171.3,33.3v-5.3h-0.6v5.3H171.3L171.3,33.3z M176.5,33.3v-0.5h-2.7v-1.9h2.3v-0.5
		h-2.3v-1.9h2.7v-0.5h-3.3v5.3H176.5L176.5,33.3z M181.9,33.3v-5.3h-0.6v4.3l-2.8-4.3h-0.5v5.3h0.6V29l2.8,4.3H181.9L181.9,33.3z
		 M187.1,31.7h-0.6c-0.1,0.7-0.6,1.1-1.3,1.1c-0.4,0-0.7-0.1-0.9-0.4c-0.3-0.3-0.4-0.7-0.4-1.8c0-1.1,0-1.5,0.4-1.8
		c0.2-0.2,0.6-0.4,0.9-0.4c0.7,0,1.1,0.4,1.3,1.1h0.6c-0.2-1-0.9-1.6-1.9-1.6c-0.5,0-1,0.2-1.4,0.6c-0.5,0.5-0.5,1-0.5,2.2
		c0,1.1,0,1.7,0.5,2.2c0.4,0.4,0.8,0.6,1.4,0.6C186.2,33.3,186.9,32.7,187.1,31.7L187.1,31.7z M191.8,33.3v-0.5h-2.7v-1.9h2.3v-0.5
		h-2.3v-1.9h2.7v-0.5h-3.3v5.3H191.8L191.8,33.3z M196.6,31.8c0-0.4-0.2-0.8-0.4-1.1c-0.2-0.2-0.5-0.3-1-0.4l-0.6-0.1
		c-0.3,0-0.6-0.2-0.7-0.3c-0.2-0.1-0.2-0.4-0.2-0.6c0-0.6,0.4-1,1.1-1c0.6,0,0.9,0.2,1.2,0.5l0.4-0.4c-0.5-0.4-0.9-0.6-1.6-0.6
		c-1.1,0-1.7,0.6-1.7,1.5c0,0.4,0.1,0.8,0.4,1c0.2,0.2,0.6,0.3,1,0.4l0.6,0.1c0.4,0.1,0.5,0.1,0.7,0.3c0.2,0.1,0.3,0.4,0.3,0.7
		c0,0.6-0.5,1-1.3,1c-0.6,0-1-0.1-1.5-0.6l-0.4,0.4c0.5,0.5,1,0.7,1.8,0.7C195.8,33.3,196.6,32.7,196.6,31.8L196.6,31.8z"/>
	<path fill="#FFFFFF" d="M70.6,24.3v-5.3h-0.6v2.4h-2.5v-2.4H67v5.3h0.6v-2.4h2.5v2.4H70.6L70.6,24.3z M76,21.6c0-1.1,0-1.7-0.5-2.2
		c-0.4-0.4-0.8-0.6-1.4-0.6s-1,0.2-1.4,0.6c-0.5,0.5-0.5,1-0.5,2.2c0,1.1,0,1.7,0.5,2.2c0.4,0.4,0.8,0.6,1.4,0.6s1-0.2,1.4-0.6
		C76,23.2,76,22.7,76,21.6L76,21.6z M75.4,21.6c0,1.1,0,1.5-0.4,1.8c-0.2,0.2-0.6,0.4-0.9,0.4c-0.4,0-0.7-0.1-0.9-0.4
		c-0.3-0.3-0.4-0.7-0.4-1.8c0-1.1,0-1.5,0.4-1.8c0.2-0.2,0.6-0.4,0.9-0.4c0.4,0,0.7,0.1,0.9,0.4C75.4,20.1,75.4,20.5,75.4,21.6
		L75.4,21.6z M81.2,22.7h-0.6c-0.1,0.7-0.6,1.1-1.3,1.1c-0.4,0-0.7-0.1-0.9-0.4c-0.3-0.3-0.4-0.7-0.4-1.8c0-1.1,0-1.5,0.4-1.8
		c0.2-0.2,0.6-0.4,0.9-0.4c0.7,0,1.1,0.4,1.3,1.1h0.6c-0.2-1-0.9-1.6-1.9-1.6c-0.5,0-1,0.2-1.4,0.6c-0.5,0.5-0.5,1-0.5,2.2
		c0,1.1,0,1.7,0.5,2.2c0.4,0.4,0.8,0.6,1.4,0.6C80.3,24.3,81,23.7,81.2,22.7L81.2,22.7z M86.3,24.3v-5.3h-0.6v2.4h-2.5v-2.4h-0.6
		v5.3h0.6v-2.4h2.5v2.4H86.3L86.3,24.3z M91.4,22.8c0-0.4-0.2-0.8-0.4-1.1c-0.2-0.2-0.5-0.3-1-0.4l-0.6-0.1c-0.3,0-0.6-0.2-0.7-0.3
		c-0.2-0.1-0.2-0.4-0.2-0.6c0-0.6,0.4-1,1.1-1c0.6,0,0.9,0.2,1.2,0.5l0.4-0.4c-0.5-0.4-0.9-0.6-1.6-0.6c-1.1,0-1.7,0.6-1.7,1.5
		c0,0.4,0.1,0.8,0.4,1c0.2,0.2,0.6,0.3,1,0.4l0.6,0.1c0.4,0.1,0.5,0.1,0.7,0.3c0.2,0.1,0.3,0.4,0.3,0.7c0,0.6-0.5,1-1.3,1
		c-0.6,0-1-0.1-1.5-0.6l-0.4,0.4c0.5,0.5,1,0.7,1.8,0.7C90.7,24.3,91.4,23.7,91.4,22.8L91.4,22.8z M96.3,22.7h-0.6
		c-0.1,0.7-0.6,1.1-1.3,1.1c-0.4,0-0.7-0.1-0.9-0.4c-0.3-0.3-0.4-0.7-0.4-1.8c0-1.1,0-1.5,0.4-1.8c0.2-0.2,0.6-0.4,0.9-0.4
		c0.7,0,1.1,0.4,1.3,1.1h0.6c-0.2-1-0.9-1.6-1.9-1.6c-0.5,0-1,0.2-1.4,0.6c-0.5,0.5-0.5,1-0.5,2.2c0,1.1,0,1.7,0.5,2.2
		c0.4,0.4,0.8,0.6,1.4,0.6C95.4,24.3,96.2,23.7,96.3,22.7L96.3,22.7z M101.5,24.3v-5.3h-0.6v2.4h-2.5v-2.4h-0.6v5.3h0.6v-2.4h2.5
		v2.4H101.5L101.5,24.3z M107,22.5v-3.6h-0.6v3.5c0,0.8-0.5,1.3-1.3,1.3s-1.3-0.5-1.3-1.3v-3.5h-0.6v3.6c0,1.1,0.8,1.8,1.9,1.8
		C106.2,24.3,107,23.6,107,22.5L107,22.5z M112.1,24.3v-0.5h-2.7v-4.8h-0.6v5.3H112.1L112.1,24.3z M116.7,24.3v-0.5H114v-1.9h2.3
		v-0.5H114v-1.9h2.7v-0.5h-3.3v5.3H116.7L116.7,24.3z M124.8,21.5c0-0.7,0-1.6-0.5-2.1c-0.3-0.3-0.8-0.5-1.4-0.5h-1.8v5.3h1.8
		c0.6,0,1-0.2,1.4-0.5C124.8,23.2,124.8,22.3,124.8,21.5L124.8,21.5z M124.2,21.5c0,0.7,0,1.4-0.4,1.8c-0.3,0.3-0.6,0.4-1,0.4h-1.2
		v-4.3h1.2c0.4,0,0.8,0.1,1,0.4C124.2,20.2,124.2,20.9,124.2,21.5L124.2,21.5z M130.1,24.3l-2-5.3h-0.5l-2,5.3h0.6l0.4-1.2h2.3
		l0.4,1.2H130.1L130.1,24.3z M128.9,22.6h-2l1-2.8L128.9,22.6L128.9,22.6z M135.2,24.3l-1.3-2.4c0.7-0.1,1.2-0.7,1.2-1.4
		c0-0.9-0.7-1.5-1.6-1.5h-2v5.3h0.6v-2.4h1.3l1.2,2.4H135.2L135.2,24.3z M134.5,20.4c0,0.7-0.4,1-1.1,1H132v-2h1.4
		C134,19.4,134.5,19.8,134.5,20.4L134.5,20.4z M141.4,24.3v-5.3h-0.6l-1.7,3.8l-1.7-3.8h-0.6v5.3h0.6v-4.1l1.5,3.2h0.5l1.5-3.2v4.1
		H141.4L141.4,24.3z M146.5,22.8c0-0.4-0.2-0.8-0.4-1.1c-0.2-0.2-0.5-0.3-1-0.4l-0.6-0.1c-0.3,0-0.6-0.2-0.7-0.3
		c-0.2-0.1-0.2-0.4-0.2-0.6c0-0.6,0.4-1,1.1-1c0.6,0,0.9,0.2,1.2,0.5l0.4-0.4c-0.5-0.4-0.9-0.6-1.6-0.6c-1.1,0-1.7,0.6-1.7,1.5
		c0,0.4,0.1,0.8,0.4,1c0.2,0.2,0.6,0.3,1,0.4l0.6,0.1c0.4,0.1,0.5,0.1,0.7,0.3c0.2,0.1,0.3,0.4,0.3,0.7c0,0.6-0.5,1-1.3,1
		c-0.6,0-1-0.1-1.5-0.6l-0.4,0.4c0.5,0.5,1,0.7,1.8,0.7C145.8,24.3,146.5,23.7,146.5,22.8L146.5,22.8z M150.9,19.4v-0.5h-3.7v0.5
		h1.5v4.8h0.6v-4.8H150.9L150.9,19.4z M155.8,24.3l-2-5.3h-0.5l-2,5.3h0.6l0.4-1.2h2.3l0.4,1.2H155.8L155.8,24.3z M154.6,22.6h-2
		l1-2.8L154.6,22.6L154.6,22.6z M160.8,21.5c0-0.7,0-1.6-0.5-2.1c-0.3-0.3-0.8-0.5-1.4-0.5h-1.8v5.3h1.8c0.6,0,1-0.2,1.4-0.5
		C160.8,23.2,160.8,22.3,160.8,21.5L160.8,21.5z M160.2,21.5c0,0.7,0,1.4-0.4,1.8c-0.3,0.3-0.6,0.4-1.1,0.4h-1.2v-4.3h1.2
		c0.4,0,0.8,0.1,1.1,0.4C160.2,20.2,160.2,20.9,160.2,21.5L160.2,21.5z M165.4,19.4v-0.5h-3.7v0.5h1.5v4.8h0.6v-4.8H165.4
		L165.4,19.4z"/>
	<path fill="#FFFFFF" d="M72.5,9.3V4.9c0-1.4-0.8-2.5-2.3-2.5c-0.6,0-1.2,0.2-1.6,0.7V0H67v9.3h1.7V5.1c0-0.9,0.6-1.2,1.1-1.2
		c0.5,0,1.1,0.3,1.1,1.2v4.1H72.5L72.5,9.3z M77.5,10.5v-0.4h-4v0.4H77.5L77.5,10.5z M83.3,9.3V0h-1.7v3.1c-0.4-0.5-1-0.7-1.7-0.7
		c-0.7,0-1.3,0.2-1.7,0.6c-0.7,0.7-0.7,1.8-0.7,2.8c0,1,0,2.2,0.7,2.9c0.4,0.4,1,0.6,1.7,0.6c0.7,0,1.2-0.2,1.7-0.7v0.6H83.3
		L83.3,9.3z M81.6,5.9c0,1.1-0.1,2-1.2,2c-1,0-1.1-0.8-1.1-2c0-1.1,0.1-1.9,1.1-1.9C81.4,3.9,81.6,4.8,81.6,5.9L81.6,5.9z M90.2,9.3
		V4.8c0-1.6-1-2.4-2.9-2.4c-1.1,0-1.8,0.2-2.4,0.9l1.1,1.1c0.4-0.4,0.6-0.6,1.3-0.6c0.9,0,1.3,0.3,1.3,1.1v0.3h-1.6
		c-1.6,0-2.3,0.9-2.3,2c0,0.6,0.2,1.1,0.6,1.5c0.4,0.4,1,0.6,1.7,0.6c0.8,0,1.2-0.2,1.7-0.6v0.6H90.2L90.2,9.3z M88.5,6.8
		c0,0.4-0.1,0.7-0.2,0.9c-0.3,0.3-0.6,0.3-1.1,0.3c-0.7,0-1-0.3-1-0.8c0-0.5,0.3-0.8,0.9-0.8h1.3V6.8L88.5,6.8z"/>
</g>
</svg>
